<svg width="191" height="42" viewBox="0 0 191 42" fill="none" xmlns="http://www.w3.org/2000/svg">
<path d="M35.004 5.73165C35.1942 5.29817 35.1942 5.29817 36.2405 2.74541C33.7199 2.45642 32.3406 2.2156 30.1529 2.26376C27.2993 0.818807 24.1128 0 20.7361 0C9.27415 0 0 9.3922 0 21C0 32.6078 9.27415 42 20.7361 42C32.198 42 41.4721 32.6078 41.4721 21C41.4721 14.9794 38.9514 9.58486 35.004 5.73165Z" fill="white"/>
<path d="M30.3907 5.49104C30.3431 5.44288 30.2956 5.44288 30.248 5.44288C30.2004 5.44288 30.1529 5.49104 30.1053 5.49104C29.2493 6.50251 28.2505 7.41765 27.1566 8.14013C24.9689 9.53691 22.4958 10.3076 19.88 10.3076C15.0289 10.3076 12.2704 7.8993 10.0351 6.16535C9.98755 6.11719 9.93999 6.06902 9.93999 6.02086C9.93999 5.97269 9.98755 5.92453 10.0351 5.87636C13.507 3.17912 16.3606 1.44517 19.2617 0.433703C19.3568 0.385538 19.4044 0.337372 19.4044 0.241042C19.4044 0.144712 19.3093 0.0965467 19.2141 0.0483815C18.691 0.000216384 18.1678 0.00021643 17.6447 0.00021643C7.89492 -0.0479487 0 7.94746 0 17.8213C0 23.264 2.37799 28.1287 6.18277 31.4039C6.23033 31.4521 6.27789 31.4521 6.37301 31.4521C6.42057 31.4521 6.46813 31.4039 6.51569 31.3076L7.22908 28.9956C7.27664 28.8993 7.37176 28.8511 7.46688 28.8511C16.8837 30.9222 20.9263 25.7686 20.2605 22.5415C19.6897 19.7961 15.2667 17.3878 8.79856 21.0965C8.751 21.1447 8.70344 21.1447 8.65588 21.0965C8.65588 21.0965 8.60832 21.0965 8.60832 21.0484C8.56076 21.0002 8.5132 20.9521 8.5132 20.8557L10.7009 9.53691C10.7009 9.48875 10.7485 9.44058 10.7961 9.39242C10.8436 9.34425 10.9387 9.39242 10.9863 9.39242C11.6046 9.77774 13.4594 10.9819 15.4569 12.186C15.5045 12.2342 15.552 12.2823 15.552 12.3787C15.5045 12.8603 15.2191 14.6424 15.124 15.4131C15.124 15.4612 15.124 15.5576 15.1716 15.6057C15.2191 15.6539 15.2667 15.6539 15.3618 15.6539C26.2054 12.7158 28.4883 19.6034 28.2029 22.8787C27.5371 30.3443 19.4044 34.2938 12.1753 34.3901C12.0802 34.3901 11.9851 34.4383 11.9851 34.5346C11.9851 34.631 12.0326 34.7273 12.1277 34.7273C13.8875 35.3053 15.7423 35.6424 17.6447 35.6424C27.3944 35.6424 35.2893 27.647 35.2893 17.7732C35.2893 13.053 33.387 8.66994 30.3907 5.49104Z" transform="translate(3.08984 3.17773)" fill="#E61801"/>
<path d="M0 4.76835C5.84985 9.24771 14.4106 6.98395 17.2642 1.83735e-07C11.9851 2.55275 6.13521 4.19037 0 4.76835Z" transform="translate(16.1719 4.38281)" fill="#78B617"/>
<path d="M0 4.92462C6.13521 4.3948 11.9375 2.75719 17.2642 0.156268C11.3192 -0.518043 5.13645 0.975076 0 4.92462Z" transform="translate(16.1719 4.22656)" fill="#28A62A"/>
<path d="M57.0242 9.03695C54.7889 9.03695 53.4572 10.4819 52.3633 12.264H52.3157C52.3157 10.4337 51.6023 9.03695 49.5573 9.03695C47.1317 9.03695 45.8476 10.8672 44.9915 12.4085H44.944C45.0867 11.8305 45.2293 11.0117 45.372 10.3374C45.4196 10.0966 45.3245 9.85576 45.1818 9.71127C45.0391 9.51861 44.8013 9.42227 44.5635 9.42227H42.138L39.9502 21.8007C39.9026 21.9934 39.9502 22.2342 40.0929 22.4269C40.2356 22.5714 40.4258 22.6677 40.6636 22.6677H43.2318L43.4221 21.5599C44.7062 14.1906 46.4659 12.1677 47.8927 12.1677C48.8914 12.1677 49.0341 13.131 48.7963 14.4314L47.4646 21.6562C47.4171 21.897 47.4646 22.1379 47.6549 22.3305C47.7976 22.5232 48.0354 22.6195 48.2732 22.6195H50.7938L50.9841 21.5117C52.2682 14.1906 54.0279 12.1195 55.4547 12.1195C56.4059 12.1195 56.5486 13.0347 56.3108 14.3833L54.9791 21.8007C54.9315 21.9934 54.9791 22.186 55.1218 22.3787C55.2645 22.5232 55.4547 22.6195 55.6449 22.6195H58.2607L59.7351 14.2388C59.8777 13.5645 59.9253 12.9383 59.9253 12.4085C59.8777 10.1929 58.8314 9.03695 57.0242 9.03695ZM71.5774 6.24338L72.7189 6.43604C73.0518 6.4842 73.3372 6.53237 73.4323 6.00255L73.8128 4.5576C73.9079 4.12411 73.7652 4.02778 73.3372 3.93145L72.2908 3.73879C72.053 3.73879 71.6726 3.64246 71.5774 4.17227L71.1494 5.66539C71.1019 6.00255 71.197 6.19521 71.5774 6.24338ZM38.2856 9.42227H33.2918C29.5822 9.42227 27.1091 11.0117 27.1091 13.998C27.1091 15.5874 28.2029 16.5989 29.2968 16.6952V16.7434C28.8688 16.8879 28.3932 17.4659 27.87 18.092C26.9664 19.248 26.3006 20.0186 25.7298 20.0186C25.6347 20.0186 25.5396 20.1149 25.492 20.2113L25.2067 22.2824C25.2067 22.3787 25.2067 22.475 25.3018 22.5232C25.3494 22.5714 25.4445 22.6195 25.5396 22.6195H26.5859C28.2981 22.6195 28.8688 21.9452 30.5334 19.8259C31.8175 18.092 32.2931 17.5622 33.1016 17.5622H33.6723L32.8638 22.2342C32.8638 22.3305 32.8638 22.4269 32.9114 22.475C32.9589 22.5714 33.054 22.5714 33.1492 22.5714H36.0503C36.193 22.5714 36.3357 22.475 36.3357 22.3305L38.571 9.71127C38.571 9.61494 38.571 9.51861 38.5234 9.47044C38.4758 9.47044 38.3807 9.42227 38.2856 9.42227ZM34.1479 15.2021H32.3406C31.1992 15.2021 30.676 14.8168 30.676 14.0461C30.676 12.7457 31.4846 12.0714 33.054 12.0714H34.7662L34.1479 15.2021ZM29.5822 3.3053C43.4696 2.72732 65.3947 5.32824 65.3947 5.32824C65.68 5.3764 65.9178 5.23191 66.013 4.99108L66.2508 4.26861L66.6312 3.06448C66.6788 2.96815 66.6312 2.91998 66.5837 2.82365C66.5361 2.77549 66.4886 2.72732 66.3934 2.67916C63.6825 2.29383 43.6599 -0.307083 29.1066 0.030073C15.4094 0.367229 3.8999 3.11264 0.808517 3.93145C0.570718 3.97961 0.380479 4.17227 0.332919 4.46127L-1.45141e-06 6.24338C-1.45141e-06 6.33971 7.2287e-07 6.43604 0.0951203 6.4842C0.14268 6.53237 0.2378 6.58053 0.332919 6.53237C2.80603 5.95438 6.27789 5.3764 10.8436 4.79842L7.7998 22.0415C7.70468 22.3305 7.70468 22.6677 8.2754 22.6677H11.2241C11.4143 22.6677 11.6521 22.6195 11.7473 22.1379L14.6008 5.47273C14.6008 5.42457 14.7911 4.5576 15.7423 4.31677C16.9788 4.17228 19.119 4.07594 20.4031 3.93145L17.2166 22.0415C17.1215 22.6677 17.4069 22.6195 17.6447 22.6195H20.7361C20.9739 22.6195 21.3543 22.5714 21.4495 21.9934L24.4457 4.60576C24.4457 4.60576 24.636 3.69062 25.5872 3.49796C27.1091 3.4498 28.0603 3.35347 29.5822 3.3053ZM67.9629 5.76172L69.247 5.95439C69.5799 6.00255 69.8653 6.05072 70.008 5.5209L70.436 4.02778C70.5311 3.54613 70.3885 3.4498 69.9604 3.35347L68.7714 3.20897C68.5336 3.16081 68.1531 3.11264 68.0105 3.64246L67.5824 5.18374C67.4398 5.47273 67.5349 5.66539 67.9629 5.76172ZM72.9567 12.5048C72.9567 10.3374 71.4823 9.08512 68.9617 9.08512C64.7764 9.08512 61.4472 12.7457 61.4472 17.7067C61.4472 20.8374 63.1594 23.0048 66.441 23.0048C69.0092 23.0048 70.6738 21.9934 71.6726 21.0782L70.2933 18.7181C69.4848 19.4406 68.3434 20.1149 66.9641 20.1149C65.5374 20.1149 64.9666 19.1998 64.9191 17.7067C69.2946 17.225 72.9567 15.7319 72.9567 12.5048ZM65.1569 15.4429C65.6325 13.5163 66.7264 11.7824 68.3909 11.7824C69.1995 11.7824 69.6275 12.1195 69.6275 12.8902C69.5799 14.287 67.7727 15.2021 65.1569 15.4429ZM83.2771 9.03695C80.9943 9.03695 79.8053 10.6264 78.7114 12.5048H78.6639C78.8065 12.0232 78.9016 11.5897 78.9968 11.1081C79.0919 10.6746 78.9968 10.2411 78.7114 9.90393C78.4261 9.56677 78.0456 9.37411 77.6175 9.37411H75.9529L72.4811 28.5438H74.431C75.2871 28.5438 76.0481 27.9177 76.1907 27.0507L76.9517 22.764C77.2371 22.8603 77.8078 22.9567 78.759 22.9567C83.2771 22.9567 86.5588 19.248 86.5588 13.5163C86.6539 10.8191 85.3222 9.03695 83.2771 9.03695ZM78.8541 20.3558C78.0931 20.3558 77.7127 20.2594 77.5224 20.2113L77.6651 19.4888C78.6639 14.6241 80.3284 12.1677 81.8979 12.1677C82.7064 12.1677 83.0869 12.9383 83.0869 14.1425C82.9918 17.9957 81.137 20.3558 78.8541 20.3558ZM137.876 9.03695C133.025 9.03695 129.648 12.9383 129.648 18.6218C129.648 21.3191 131.027 22.9567 133.025 22.9567C135.165 22.9567 136.449 21.3672 137.448 19.4406H137.495C137.353 20.0186 137.257 20.7411 137.162 21.4154C137.115 21.7044 137.21 22.0415 137.448 22.2824C137.638 22.5232 137.923 22.6677 138.256 22.6677H140.492C140.539 21.7044 140.682 19.537 141.3 15.8764L142.394 9.85576C141.823 9.56677 140.254 9.03695 137.876 9.03695ZM138.494 12.6012C137.59 17.5622 135.878 19.9223 134.451 19.9223C133.643 19.9223 133.262 19.2961 133.262 17.9957C133.262 14.287 135.212 11.686 137.353 11.686C137.876 11.686 138.351 11.7824 138.589 11.8305L138.494 12.6012ZM125.082 17.4177C124.702 16.647 124.321 16.1172 123.941 15.7801L129.695 9.42227H126.557C126.033 9.42227 125.51 9.6631 125.13 10.0966L121.087 14.8168H120.374L121.135 10.4819C121.182 10.2411 121.135 9.95209 120.944 9.75943C120.802 9.56677 120.516 9.42227 120.279 9.42227H117.758L115.475 22.6677H117.996C118.566 22.6677 119.042 22.2342 119.137 21.7044L119.946 17.225H120.326C121.087 17.225 121.563 18.0438 122.371 19.8259C123.322 21.897 123.798 22.6677 125.463 22.6677H126.842L127.317 20.0186H127.032C126.414 20.0186 125.891 19.1998 125.082 17.4177ZM110.909 10.2411C110.386 13.6126 108.674 15.8282 107.009 15.8282C106.153 15.8282 105.868 15.2021 106.106 13.7571L106.534 11.1562C106.581 10.7227 106.486 10.2892 106.201 9.95209C105.916 9.61494 105.535 9.42227 105.107 9.42227H103.347L102.539 13.9016C102.444 14.4796 102.396 15.0576 102.396 15.5392C102.396 17.7548 103.442 18.959 105.297 18.959C107.628 18.959 109.15 17.4177 110.101 15.7319H110.148C109.768 17.7548 109.245 20.7411 109.055 22.6195H112.431C112.479 21.6562 112.717 19.4888 113.335 15.8282L114.476 9.37411H111.005L110.909 10.2411ZM95.3098 9.03695C91.077 9.03695 87.8904 12.842 87.8904 17.4177C87.8904 20.4521 89.7453 22.9567 93.122 22.9567C97.45 22.9567 100.446 19.3443 100.446 14.5759C100.494 11.4452 98.5914 9.03695 95.3098 9.03695ZM93.4549 20.2594C92.1233 20.2594 91.4574 19.1035 91.4574 17.3695C91.4574 14.9131 92.8367 11.7824 95.0244 11.7824C96.3561 11.7824 97.0219 12.7938 97.0219 14.6241C97.0219 17.0324 95.7854 20.2594 93.4549 20.2594Z" transform="translate(48.6055 7.33984)" fill="#E61801"/>
</svg>
