<?xml version="1.0" encoding="UTF-8"?>
<svg width="233px" height="25px" viewBox="0 0 233 25" version="1.1" xmlns="http://www.w3.org/2000/svg">
    <g stroke="none" stroke-width="1" fill="none" fill-rule="evenodd">
        <g transform="translate(-370.000000, -53.000000)">
            <g>
                <g>
                    <g transform="translate(370.000000, 53.000000)">
                        <rect x="0" y="0" width="233" height="25"></rect>
                        <path d="M115.40457,11.9295735 C115.155974,12.1610668 114.852406,12.2746757 114.495393,12.2746757 C114.138991,12.2746757 113.836034,12.1610668 113.594463,11.9365977 C113.348921,11.6916667 113.228288,11.3679425 113.228288,10.9672574 L113.228288,10.1393175 L107.061341,10.1393175 C106.700664,10.1393175 106.390988,10.0202114 106.165297,9.79421523 C105.918534,9.54684106 105.793625,9.22311684 105.793625,8.83189917 L105.793625,1.42411171 C105.793625,1.02403744 105.914258,0.700313218 106.152165,0.462406456 C106.401677,0.230607698 106.704939,0.11699882 107.061341,0.11699882 C107.417438,0.11699882 107.721006,0.230607698 107.962883,0.455382251 C108.208425,0.700313218 108.329058,1.02403744 108.329058,1.42411171 L108.329058,7.8417917 L111.909875,7.8417917 L111.909875,1.42411171 C111.909875,1.02403744 112.030508,0.700313218 112.26811,0.462406456 C112.517622,0.230607698 112.821189,0.11699882 113.177591,0.11699882 C113.533688,0.11699882 113.837256,0.230607698 114.079133,0.455382251 C114.324369,0.700313218 114.445002,1.02403744 114.445002,1.42411171 L114.445002,7.8417917 L114.495393,7.8417917 C114.856071,7.8417917 115.166052,7.96089778 115.391743,8.18689393 C115.637896,8.4330465 115.76311,8.75677072 115.76311,9.14859919 L115.76311,10.9672574 C115.76311,11.3679425 115.642477,11.6916667 115.40457,11.9295735 Z M125.097759,1.42414225 L125.097759,8.91133377 C125.097759,9.31171344 124.977126,9.63513226 124.739219,9.87303903 C124.489707,10.1045324 124.186444,10.2184467 123.830042,10.2184467 C123.473946,10.2184467 123.170378,10.1045324 122.928501,9.88006323 C122.682959,9.63513226 122.562326,9.31171344 122.562326,8.91133377 L122.562326,4.77621494 L118.764674,9.67513969 C118.48676,10.0355119 118.133107,10.2184467 117.713792,10.2184467 C117.357696,10.2184467 117.054128,10.1045324 116.812251,9.88006323 C116.566709,9.63513226 116.446076,9.31171344 116.446076,8.91133377 L116.446076,1.42414225 C116.446076,1.02315178 116.567015,0.699732958 116.804921,0.462436996 C117.054128,0.230638238 117.357696,0.11702936 117.713792,0.11702936 C118.070194,0.11702936 118.373457,0.230638238 118.615334,0.455412791 C118.860876,0.699732958 118.981509,1.02315178 118.981509,1.42414225 L118.981509,5.61789792 L122.778244,0.661557932 C123.05738,0.299964085 123.411033,0.11702936 123.830042,0.11702936 C124.186444,0.11702936 124.489707,0.230638238 124.731584,0.455412791 C124.97682,0.699732958 125.097759,1.02315178 125.097759,1.42414225 Z M132.726931,6.6448672 L132.746476,6.6491428 C132.833821,6.67326942 132.88635,6.68120982 132.948957,6.68120982 C133.374685,6.68120982 133.724979,6.54286353 134.021217,6.25823054 C134.322647,5.96810034 134.475652,5.58757168 134.475652,5.12824976 C134.475652,4.67320345 134.325395,4.3024476 134.017247,3.99399339 C133.716122,3.70447399 133.365523,3.56154669 132.948957,3.56154669 C132.885128,3.56154669 132.811221,3.5731519 132.736703,3.58353551 L132.726931,3.58628411 L132.726931,6.6448672 Z M128.548445,5.12824976 C128.548445,5.58726628 128.701756,5.96748954 129.003797,6.25884134 C129.299424,6.54286353 129.650024,6.68120982 130.075446,6.68120982 C130.113316,6.68120982 130.180504,6.67388022 130.297167,6.6445618 L130.290753,3.58261931 C130.186917,3.5694871 130.12767,3.56154669 130.075446,3.56154669 C129.65888,3.56154669 129.307975,3.70447399 129.003797,3.99735279 C128.698397,4.302753 128.548445,4.67381425 128.548445,5.12824976 Z M129.587417,9.05844505 C128.543253,9.05844505 127.661563,8.66356258 126.967083,7.88448665 C126.282681,7.14419654 125.933914,6.21547451 125.933914,5.12824976 C125.933914,4.04346822 126.272603,3.11230299 126.940513,2.35949147 C127.634688,1.57980474 128.525235,1.18492227 129.587417,1.18492227 C129.700415,1.18492227 129.870828,1.19805448 130.097435,1.2267621 C130.148437,1.2301215 130.20066,1.2347025 130.253494,1.24142131 C130.285561,0.923805091 130.402835,0.662382513 130.603178,0.462345376 C130.85269,0.230852018 131.155952,0.11693774 131.512354,0.11693774 C131.869061,0.11693774 132.172324,0.230852018 132.413895,0.455626571 C132.620346,0.661160912 132.738536,0.923805091 132.770603,1.24142131 C132.827713,1.2347025 132.885433,1.2292053 132.942238,1.2252351 C133.153269,1.19805448 133.323683,1.18492227 133.436681,1.18492227 C134.498863,1.18492227 135.389104,1.57980474 136.083279,2.35888067 C136.751495,3.11230299 137.090183,4.04346822 137.090183,5.12824976 C137.090183,6.2096719 136.746608,7.13747774 136.068925,7.88601365 C135.375972,8.66356258 134.489701,9.05844505 133.436681,9.05844505 C133.322766,9.05844505 133.151742,9.04500744 132.938573,9.01660522 C132.885128,9.00958102 132.831072,9.00194601 132.777627,8.9933948 C132.762052,9.35621025 132.642335,9.65183765 132.42092,9.87294741 C132.172324,10.1047462 131.869061,10.2186604 131.512354,10.2186604 C131.155952,10.2186604 130.85269,10.1047462 130.610813,9.88027701 C130.382373,9.65214305 130.262046,9.35621025 130.246165,8.9937002 C130.193025,9.00194601 130.138969,9.00958102 130.085524,9.01660522 C129.872355,9.04500744 129.701331,9.05844505 129.587417,9.05844505 Z M142.618752,3.61248745 C142.618752,3.27043921 142.52591,3.01298684 142.326178,2.80226069 C142.129195,2.59489395 141.872048,2.49411188 141.540078,2.49411188 L140.474537,2.49411188 L140.474537,4.73055761 L141.540078,4.73055761 C141.87327,4.73055761 142.12889,4.62702694 142.321903,4.414163 C142.524689,4.21046106 142.618752,3.95117628 142.618752,3.61248745 Z M145.232672,3.62531426 C145.232672,4.64015915 144.873216,5.47726112 144.164688,6.11340976 C143.492807,6.72848578 142.672502,7.02838878 141.658268,7.02838878 L140.474537,7.02838878 L140.474537,8.91148647 C140.474537,9.31094994 140.353904,9.63436876 140.116303,9.87288633 C139.866485,10.1046851 139.563223,10.2185994 139.206821,10.2185994 C138.850724,10.2185994 138.547156,10.1046851 138.305279,9.88021593 C138.059738,9.63436876 137.939104,9.31094994 137.939104,8.91148647 L137.939104,1.50339361 C137.939104,0.660183631 138.403313,0.195975314 139.246523,0.195975314 L141.57917,0.195975314 C142.622111,0.195975314 143.497083,0.513591531 144.180263,1.13935656 C144.878713,1.7803916 145.232672,2.61688277 145.232672,3.62531426 Z M148.898544,3.22551484 C148.524428,3.73247919 148.334469,4.38634104 148.334469,5.16786017 C148.334469,5.97014652 148.520153,6.62858937 148.886022,7.12394851 C149.282126,7.65992587 149.821158,7.92043225 150.533656,7.92043225 C151.246155,7.92043225 151.784881,7.65992587 152.180985,7.12394851 C152.54716,6.62858937 152.732843,5.97014652 152.732843,5.16786017 C152.732843,4.38634104 152.542579,3.73247919 152.167853,3.22459864 C151.762587,2.68007007 151.227831,2.41498269 150.533656,2.41498269 C149.839482,2.41498269 149.30442,2.68007007 148.898544,3.22551484 Z M150.533656,10.2976675 C149.131564,10.2976675 147.962492,9.79711653 147.058813,8.80945226 C146.170709,7.8382796 145.720244,6.61301396 145.720244,5.16786017 C145.720244,3.70896337 146.171014,2.48308694 147.06034,1.52474108 C147.962187,0.538909208 149.131259,0.038052866 150.533656,0.038052866 C151.923533,0.038052866 153.088634,0.548071214 153.996284,1.5537541 C154.892023,2.53164557 155.347374,3.74836 155.347374,5.16786017 C155.347374,6.60782215 154.901796,7.83217159 154.022854,8.80792526 C153.117953,9.79711653 151.944605,10.2976675 150.533656,10.2976675 Z M158.844909,3.91327611 L159.594361,3.91327611 C159.847538,3.91327611 160.033832,3.84914207 160.181035,3.71171198 C160.318465,3.58313849 160.382599,3.40509017 160.382599,3.15099719 C160.382599,2.93752245 160.316938,2.78879255 160.169125,2.66907566 C160.023143,2.55180198 159.834711,2.49438674 159.594361,2.49438674 L158.844909,2.49438674 L158.844909,3.91327611 Z M158.844909,7.841639 L160.121482,7.841639 C160.413139,7.841639 160.641579,7.76528895 160.819627,7.60800784 C160.995537,7.46172114 161.081355,7.25007879 161.081355,6.9736916 C161.081355,6.59652235 160.9482,6.21141268 159.962979,6.21141268 L158.844909,6.21141268 L158.844909,7.841639 Z M157.643159,10.1394702 C157.27729,10.1394702 156.963033,10.0276937 156.709246,9.80750014 C156.44538,9.56195837 156.309782,9.23579095 156.309782,8.85831629 L156.309782,1.46366104 C156.309782,1.07366497 156.437134,0.756659557 156.688173,0.522112197 C156.939823,0.303445647 157.25408,0.196250174 157.629722,0.196250174 L160.160573,0.196250174 C160.936901,0.196250174 161.590152,0.433546136 162.102308,0.902030056 C162.642866,1.38395159 162.918032,2.02193262 162.918032,2.79490055 C162.918032,3.58802489 162.637674,4.20890352 162.083373,4.64867982 C162.446799,4.79405032 162.76808,5.01943567 163.043246,5.32330888 C163.476303,5.800344 163.695581,6.36472359 163.695581,6.99965062 C163.695581,7.9970877 163.380102,8.78135544 162.758002,9.33107581 C162.164304,9.86674778 161.356215,10.1394702 160.358778,10.1394702 L157.643159,10.1394702 Z M169.311005,5.91685418 L168.451914,3.23757815 L167.573889,5.91685418 L169.311005,5.91685418 Z M172.832575,9.06919514 C172.832575,9.39933276 172.709498,9.68121715 172.4664,9.90629711 C172.242236,10.1136638 171.965849,10.2184161 171.643957,10.2184161 C171.030713,10.2184161 170.594602,9.90568631 170.415943,9.33764192 L170.082751,8.29378401 L166.825047,8.29378401 L166.492161,9.32664751 C166.311669,9.9007999 165.880444,10.2184161 165.27789,10.2184161 C164.955693,10.2184161 164.663425,10.106945 164.409332,9.88644609 C164.156766,9.66716874 164.023,9.36634954 164.023,9.0166663 C164.023,8.89939262 164.039797,8.78059194 164.073391,8.66362366 L164.117369,8.51825316 L166.781986,1.31416764 C167.10571,0.466376659 167.667952,0.0382055661 168.454357,0.0382055661 C169.259698,0.0382055661 169.838736,0.481341269 170.128256,1.31966484 L172.711025,8.48710234 C172.751644,8.5817764 172.786154,8.70973909 172.803562,8.83312077 C172.822497,8.94092705 172.832575,9.0114745 172.832575,9.06919514 Z M176.315359,2.80650576 C176.149832,2.95218166 176.066458,3.16993201 176.066458,3.4539542 C176.066458,3.72850899 176.152275,3.94870254 176.321772,4.10781605 C176.493407,4.26967816 176.719709,4.34847141 177.013809,4.34847141 L178.092177,4.34847141 L178.092177,2.5728746 L177.013809,2.5728746 C176.721236,2.5728746 176.492796,2.64922465 176.315359,2.80650576 Z M180.62761,8.91145593 C180.62761,9.3109194 180.506977,9.63433822 180.269375,9.87285579 C180.019558,10.1046545 179.71599,10.2185688 179.359893,10.2185688 C179.003797,10.2185688 178.700229,10.1046545 178.458352,9.88018539 C178.21281,9.63494902 178.092177,9.3115302 178.092177,8.91145593 L178.092177,6.79533788 L175.633705,9.77451692 C175.497802,9.94920584 175.301125,10.0524311 175.165222,10.1144274 C174.605118,10.3379803 174.10701,10.207269 173.738392,9.81391354 C173.50812,9.56684478 173.386571,9.25930677 173.386571,8.92458814 C173.386571,8.65950076 173.503234,8.39288637 173.724343,8.15497961 L175.632178,6.11276842 C175.075128,5.95823591 174.612142,5.70994554 174.252075,5.37125671 C173.720984,4.86978957 173.452232,4.22508973 173.452232,3.4539542 C173.452232,1.32287154 174.683911,0.196250174 177.013809,0.196250174 L179.333629,0.196250174 C180.167982,0.196250174 180.62761,0.660458491 180.62761,1.50336307 L180.62761,8.91145593 Z M193.555872,0.11693774 C193.911969,0.11693774 194.215537,0.230852018 194.457414,0.455321171 C194.702956,0.700557539 194.823589,1.02397636 194.823589,1.42405063 L194.823589,8.91124215 C194.823589,9.31070562 194.702956,9.63442984 194.465354,9.872642 C194.215537,10.1047462 193.911969,10.2186604 193.555872,10.2186604 C193.19947,10.2186604 192.896208,10.1047462 192.654331,9.88027701 C192.408789,9.63442984 192.288156,9.31070562 192.288156,8.91124215 L192.288156,4.77612332 L188.490504,9.67504807 C188.212285,10.0357257 187.858631,10.2186604 187.439622,10.2186604 C187.083526,10.2186604 186.779958,10.1047462 186.538081,9.88027701 C186.292539,9.63442984 186.171906,9.31070562 186.171906,8.91124215 L186.171906,1.42405063 C186.171906,1.02397636 186.292539,0.700557539 186.530446,0.462345376 C186.779958,0.230852018 187.083526,0.11693774 187.439622,0.11693774 C187.795719,0.11693774 188.099287,0.230852018 188.341164,0.455321171 C188.586706,0.700557539 188.707339,1.02397636 188.707339,1.42405063 L188.707339,5.6181117 L192.504074,0.661466312 C192.782904,0.299872465 193.136558,0.11693774 193.555872,0.11693774 Z M110.565137,21.6753828 C110.565137,21.2988243 110.432288,20.9137147 109.447067,20.9137147 L108.328997,20.9137147 L108.328997,22.5433302 L109.605264,22.5433302 C109.896921,22.5433302 110.125666,22.4672855 110.303714,22.3100044 C110.47932,22.1637177 110.565137,21.9520754 110.565137,21.6753828 Z M112.134283,19.3317416 C112.829069,19.8787134 113.179668,20.6755025 113.179668,21.7016472 C113.179668,22.6987789 112.86419,23.4830466 112.241784,24.0330724 C111.648086,24.5687444 110.839997,24.8414668 109.84256,24.8414668 L107.126941,24.8414668 C106.761072,24.8414668 106.447121,24.7296903 106.193333,24.5098021 C105.929162,24.263955 105.793564,23.9374821 105.793564,23.5603129 L105.793564,16.1656576 C105.793564,15.7756616 105.920916,15.4586561 106.171955,15.2238034 C106.423605,15.0051368 106.737862,14.8982468 107.113809,14.8982468 L111.042172,14.8982468 C111.424533,14.8982468 111.732682,15.0210176 111.958067,15.2641162 C112.159021,15.5011068 112.257054,15.7747454 112.257054,16.086559 C112.257054,16.4029536 112.15505,16.6677356 111.946157,16.8952587 C111.732682,17.1414113 111.41812,17.2748712 111.042172,17.2748712 L108.328997,17.2748712 L108.328997,18.6149673 L109.605264,18.6149673 C110.663781,18.6149673 111.514626,18.8559281 112.134283,19.3317416 Z M122.99349,14.8188122 C123.350198,14.8188122 123.65346,14.9327264 123.895032,15.157501 C124.140268,15.4018212 124.260901,15.7255454 124.260901,16.1262305 L124.260901,23.6131166 C124.260901,24.0131908 124.140268,24.3366097 123.902056,24.5745164 C123.65346,24.8063152 123.350198,24.9208403 122.99349,24.9208403 C122.637088,24.9208403 122.333826,24.806926 122.091949,24.5821514 C121.846407,24.3369151 121.725774,24.0131908 121.725774,23.6131166 L121.725774,16.1262305 C121.725774,15.72524 121.846712,15.4015158 122.084314,15.1642198 C122.333826,14.9327264 122.637088,14.8188122 122.99349,14.8188122 Z M118.588459,21.6094774 C118.588459,21.3614925 118.507222,21.1785577 118.332839,21.0328818 C118.13158,20.8636901 117.850001,20.7818429 117.470388,20.7818429 L116.549607,20.7818429 L116.549607,22.5433913 L117.62828,22.5433913 C117.919021,22.5433913 118.149598,22.460017 118.314209,22.2957117 C118.49806,22.1216336 118.588459,21.8928888 118.588459,21.6094774 Z M120.163713,19.2444582 C120.852696,19.8015082 121.202379,20.6062377 121.202379,21.6357418 C121.202379,22.6304303 120.888733,23.4266087 120.269992,24.0022881 C119.670186,24.5587272 118.861181,24.8415278 117.865882,24.8415278 L115.347857,24.8415278 C114.982293,24.8415278 114.668341,24.7297514 114.413943,24.5098632 C114.149772,24.2630998 114.01448,23.9375432 114.01448,23.560374 L114.01448,16.1260167 C114.01448,15.7250262 114.135113,15.4016074 114.373019,15.1643114 C114.622226,14.9328181 114.925794,14.8189038 115.281891,14.8189038 C115.638293,14.8189038 115.941555,14.9328181 116.183432,15.1572872 C116.428974,15.4016074 116.549607,15.7250262 116.549607,16.1260167 L116.549607,18.4834009 L117.62828,18.4834009 C118.690157,18.4834009 119.543445,18.7396317 120.163713,19.2444582 Z M131.795521,15.2642384 C132.002277,15.4877913 132.107335,15.7641785 132.107335,16.0863757 C132.107335,16.4039919 132.016631,16.6657199 131.830337,16.8865243 C131.626024,17.1421443 131.322151,17.2749933 130.932155,17.2749933 L129.774383,17.2749933 L129.774383,23.6129639 C129.774383,24.0133435 129.653749,24.3370678 129.415843,24.5746691 C129.166331,24.8070787 128.862763,24.920993 128.506666,24.920993 C128.150264,24.920993 127.847002,24.8070787 127.605125,24.5819987 C127.359583,24.3370678 127.23895,24.0133435 127.23895,23.6129639 L127.23895,17.2749933 L126.081178,17.2749933 C125.691182,17.2749933 125.387309,17.1421443 125.178415,16.8804163 C124.996702,16.6657199 124.905998,16.4039919 124.905998,16.0863757 C124.905998,15.7641785 125.01075,15.4877913 125.217506,15.2642384 C125.446251,15.0177804 125.728746,14.8980635 126.081178,14.8980635 L130.932155,14.8980635 C131.284587,14.8980635 131.566776,15.0177804 131.795521,15.2642384 Z M135.198626,17.9272366 C134.824206,18.4342009 134.633941,19.0880628 134.633941,19.8698873 C134.633941,20.6715628 134.819625,21.3300057 135.186105,21.8259756 C135.581903,22.3616476 136.120935,22.622154 136.833434,22.622154 C137.545932,22.622154 138.084353,22.3616476 138.480457,21.8259756 C138.846632,21.3303111 139.032315,20.672479 139.032315,19.8698873 C139.032315,19.0880628 138.842356,18.4345063 138.467325,17.9266258 C138.062059,17.3820972 137.527303,17.1170098 136.833434,17.1170098 C136.138953,17.1170098 135.604198,17.3820972 135.198626,17.9272366 Z M136.833434,14.74008 C138.223004,14.74008 139.388412,15.2500983 140.296061,16.2554758 C141.1918,17.2336727 141.646846,18.4500817 141.646846,19.8698873 C141.646846,21.3098493 141.201267,22.5341987 140.322325,23.5099524 C139.41773,24.4988383 138.244077,25 136.833434,25 C135.431036,25 134.261964,24.4988383 133.35859,23.5114794 C132.470181,22.5403067 132.020021,21.3150411 132.020021,19.8698873 C132.020021,18.4106851 132.470792,17.1851141 133.359812,16.2267682 C134.261658,15.2406309 135.43073,14.74008 136.833434,14.74008 Z M145.144564,18.61512 L145.894016,18.61512 C146.147193,18.61512 146.333793,18.550986 146.481301,18.4132505 C146.618426,18.2849824 146.682254,18.1072395 146.682254,17.8528411 C146.682254,17.6393663 146.616288,17.4906364 146.46878,17.3709195 C146.322798,17.2536459 146.134366,17.1962306 145.894016,17.1962306 L145.144564,17.1962306 L145.144564,18.61512 Z M147.38101,21.6755355 C147.38101,21.2986716 147.247855,20.913562 146.262634,20.913562 L145.144564,20.913562 L145.144564,22.5431775 L146.421137,22.5431775 C146.712794,22.5431775 146.941234,22.4671328 147.119893,22.3098517 C147.295193,22.163565 147.38101,21.9522281 147.38101,21.6755355 Z M148.383028,19.3505237 C148.746454,19.4955888 149.067735,19.721585 149.342901,20.0254582 C149.775958,20.5031041 149.995236,21.0668729 149.995236,21.7014945 C149.995236,22.6986262 149.679757,23.4828939 149.057657,24.0329197 C148.463959,24.5685917 147.65587,24.8416195 146.658433,24.8416195 L143.942814,24.8416195 C143.57725,24.8416195 143.262994,24.7295376 143.008901,24.5099548 C142.744729,24.2631915 142.609132,23.9376348 142.609132,23.5601602 L142.609132,16.1655049 C142.609132,15.7748981 142.736789,15.4578926 142.987828,15.2236507 C143.239478,15.0052895 143.55404,14.8980941 143.929988,14.8980941 L146.460839,14.8980941 C147.236556,14.8980941 147.889807,15.13539 148.401963,15.6038739 C148.942521,16.0861009 149.217687,16.7237765 149.217687,17.4970498 C149.217687,18.2898688 148.937329,18.9110528 148.383028,19.3505237 Z M155.610629,20.6184232 L154.751233,17.9388418 L153.873513,20.6184232 L155.610629,20.6184232 Z M159.010039,23.1889768 C159.050657,23.2827346 159.085778,23.4110027 159.103186,23.5349952 C159.122732,23.6464663 159.132505,23.7148759 159.132505,23.7710696 C159.132505,24.1009018 159.009123,24.3824808 158.766024,24.6081715 C158.542166,24.8158437 158.265473,24.9209013 157.943582,24.9209013 C157.330338,24.9209013 156.894226,24.6078661 156.715567,24.0395163 L156.382376,22.9956584 L153.124672,22.9956584 L152.792091,24.0285219 C152.611294,24.6029797 152.179458,24.9209013 151.576903,24.9209013 C151.255012,24.9209013 150.963049,24.8088195 150.708956,24.5886259 C150.45639,24.3690432 150.322625,24.0688348 150.322625,23.7185407 C150.322625,23.6015724 150.339422,23.4824664 150.373016,23.3654981 L150.416993,23.2201276 L153.08161,16.0160421 C153.405334,15.1682511 153.967576,14.74008 154.753676,14.74008 C155.559322,14.74008 156.138361,15.1832157 156.42788,16.0215393 L159.010039,23.1889768 Z M162.615014,17.5083496 C162.449792,17.6537201 162.366418,17.8714705 162.366418,18.1561035 C162.366418,18.4306583 162.452235,18.6508518 162.621122,18.8093545 C162.793062,18.9718274 163.019364,19.0500099 163.313464,19.0500099 L164.391832,19.0500099 L164.391832,17.2750239 L163.313464,17.2750239 C163.020891,17.2750239 162.792451,17.3510685 162.615014,17.5083496 Z M165.633284,14.8980941 C166.467637,14.8980941 166.927265,15.3623024 166.927265,16.205207 L166.927265,23.6129944 C166.927265,24.0127633 166.806632,24.3364875 166.56903,24.5746997 C166.319213,24.8068038 166.015645,24.9207181 165.659548,24.9207181 C165.303146,24.9207181 164.999884,24.8068038 164.758007,24.5820293 C164.512465,24.3367929 164.391832,24.0133741 164.391832,23.6129944 L164.391832,21.4974872 L161.93336,24.4766662 C161.797152,24.6513551 161.600169,24.7545804 161.464266,24.8162712 C160.907216,25.038908 160.406665,24.9091129 160.038047,24.5157574 C159.807775,24.2686887 159.686226,23.9611507 159.686226,23.626432 C159.686226,23.3613446 159.802889,23.0947303 160.023998,22.8568235 L161.931833,20.8146123 C161.374783,20.6600798 160.911797,20.411484 160.55173,20.073406 C160.020639,19.5719389 159.751887,18.9269336 159.751887,18.1561035 C159.751887,16.0247154 160.983566,14.8980941 163.313464,14.8980941 L165.633284,14.8980941 Z M177.746342,14.8981246 C178.098774,14.8981246 178.381269,15.0178415 178.610014,15.2642994 C178.817075,15.4878524 178.922133,15.764545 178.922133,16.0864368 C178.922133,16.4034422 178.831734,16.6651702 178.64544,16.8859746 C178.439906,17.1422053 178.136033,17.2750544 177.746342,17.2750544 L176.58857,17.2750544 L176.58857,23.613025 C176.58857,24.0127938 176.467937,24.336518 176.230641,24.5747302 C175.980823,24.8068344 175.677256,24.9207486 175.321159,24.9207486 C174.964757,24.9207486 174.661189,24.8068344 174.419312,24.5820598 C174.17377,24.336518 174.053443,24.0127938 174.053443,23.613025 L174.053443,17.2750544 L172.89567,17.2750544 C172.50598,17.2750544 172.202107,17.1422053 171.992297,16.8807828 C171.810278,16.6651702 171.720185,16.4034422 171.720185,16.0864368 C171.720185,15.764545 171.824937,15.4878524 172.031999,15.2642994 C172.260743,15.0178415 172.542933,14.8981246 172.89567,14.8981246 L177.746342,14.8981246 Z M184.240402,22.4642315 C184.623374,22.4642315 184.931523,22.5873078 185.156603,22.8304064 C185.357862,23.0670915 185.45559,23.3407301 185.45559,23.6528491 C185.45559,23.9698546 185.353892,24.2340257 185.144693,24.4612435 C184.931829,24.7073961 184.616961,24.8414668 184.240402,24.8414668 L180.839771,24.8414668 C180.482148,24.8414668 180.173999,24.7229715 179.924181,24.4896457 C179.673142,24.2541822 179.54579,23.9466441 179.54579,23.5737505 L179.54579,16.3235495 C179.54579,15.4042949 180.009693,14.8982468 180.852903,14.8982468 L184.121907,14.8982468 C184.504268,14.8982468 184.812417,15.0210176 185.038108,15.2635054 C185.239367,15.500496 185.336789,15.7741346 185.336789,16.086559 C185.336789,16.4038698 185.235091,16.6683464 185.025586,16.8955641 C184.809363,17.1450761 184.503352,17.2748712 184.121907,17.2748712 L182.081223,17.2748712 L182.081223,18.6412317 L183.96371,18.6412317 C184.34943,18.6412317 184.671017,18.7676674 184.893348,19.0080174 C185.100409,19.2321811 185.205162,19.5088737 185.205162,19.8301547 C185.205162,20.1471601 185.103463,20.4116367 184.894264,20.6385491 C184.657885,20.8914205 184.34546,21.0190777 183.96371,21.0190777 L182.081223,21.0190777 L182.081223,22.4642315 L184.240402,22.4642315 Z M194.210345,22.8800034 C194.2983,23.0015527 194.359686,23.1148561 194.406107,23.2385432 C194.464438,23.4300291 194.489786,23.5812023 194.489786,23.7186323 C194.489786,24.0750344 194.36671,24.3703564 194.123611,24.5954363 C193.868602,24.8162407 193.572059,24.920993 193.209243,24.920993 C192.788402,24.920993 192.427724,24.7301178 192.165996,24.3703564 L190.229759,21.6788644 L188.294743,24.3691348 C188.032404,24.7301178 187.671727,24.920993 187.250885,24.920993 C186.885016,24.920993 186.581753,24.8113543 186.349344,24.5954363 C186.100137,24.3795184 185.970342,24.0826694 185.970342,23.7186323 C185.970342,23.5625728 186.004547,23.3949081 186.068986,23.233046 C186.10655,23.1328747 186.156331,23.0097985 186.246118,22.8839736 L188.736352,19.5392305 L186.723153,16.8052878 C186.551519,16.5878429 186.458066,16.3276419 186.458066,16.0601113 C186.458066,15.6786665 186.587861,15.3726554 186.844092,15.1509349 C187.078945,14.9328791 187.382513,14.8186595 187.738609,14.8186595 C188.178691,14.8186595 188.554333,15.029691 188.826139,15.4282383 L190.229759,17.4209746 L191.636737,15.4248789 C191.904879,15.029691 192.281132,14.8186595 192.721214,14.8186595 C193.07731,14.8186595 193.380878,14.9328791 193.622755,15.1573483 C193.872267,15.3726554 194.002062,15.6783611 194.002062,16.0601113 C194.002062,16.3276419 193.90861,16.5878429 193.731477,16.8126174 L191.724082,19.5392305 L194.210345,22.8800034 Z M202.607385,14.8188122 C202.963787,14.8188122 203.267049,14.9327264 203.508926,15.1571956 C203.754163,15.4015158 203.875101,15.72524 203.875101,16.1262305 L203.875101,23.6131166 C203.875101,24.0131908 203.754468,24.3369151 203.516561,24.5745164 C203.267049,24.806926 202.963787,24.9208403 202.607385,24.9208403 C202.250983,24.9208403 201.94772,24.806926 201.705843,24.5821514 C201.460302,24.3369151 201.339669,24.0131908 201.339669,23.6131166 L201.339669,21.0190472 L197.758851,21.0190472 L197.758851,23.6131166 C197.758851,24.0131908 197.638218,24.3369151 197.400311,24.5745164 C197.150799,24.806926 196.847537,24.9208403 196.491135,24.9208403 C196.135038,24.9208403 195.83147,24.806926 195.589593,24.5821514 C195.344052,24.3369151 195.223419,24.0131908 195.223419,23.6131166 L195.223419,16.1262305 C195.223419,15.72524 195.344357,15.4015158 195.582264,15.1642198 C195.83147,14.9327264 196.135038,14.8188122 196.491135,14.8188122 C196.847537,14.8188122 197.150799,14.9327264 197.392676,15.1571956 C197.638218,15.4015158 197.758851,15.72524 197.758851,16.1262305 L197.758851,18.6415066 L201.339669,18.6415066 L201.339669,16.1262305 C201.339669,15.72524 201.460607,15.4015158 201.698514,15.1642198 C201.94772,14.9327264 202.250983,14.8188122 202.607385,14.8188122 Z M212.64308,14.8188122 C212.999482,14.8188122 213.302744,14.9327264 213.544621,15.1571956 C213.790163,15.402432 213.910796,15.7258508 213.910796,16.1262305 L213.910796,23.6131166 C213.910796,24.01258 213.790163,24.3366097 213.552867,24.5745164 C213.302744,24.806926 212.999482,24.9208403 212.64308,24.9208403 C212.286983,24.9208403 211.983416,24.806926 211.741539,24.5821514 C211.495997,24.3366097 211.375669,24.01258 211.375669,23.6131166 L211.375669,19.4776923 L207.577712,24.3772279 C207.299798,24.7376001 206.946145,24.9208403 206.52683,24.9208403 C206.170733,24.9208403 205.867166,24.806926 205.625289,24.5821514 C205.379747,24.3366097 205.259419,24.01258 205.259419,23.6131166 L205.259419,16.1262305 C205.259419,15.7258508 205.379747,15.402432 205.617654,15.1645252 C205.867166,14.9327264 206.170733,14.8188122 206.52683,14.8188122 C206.883232,14.8188122 207.186494,14.9327264 207.428371,15.1571956 C207.673913,15.402432 207.794546,15.7258508 207.794546,16.1262305 L207.794546,20.3199861 L211.591282,15.3633407 C211.870417,15.0017469 212.224071,14.8188122 212.64308,14.8188122 Z M219.788376,19.559051 L222.643563,22.5370084 C223.061655,22.9706767 223.274214,23.3728888 223.274214,23.7320394 C223.274214,24.1043223 223.133119,24.4078901 222.854899,24.6335808 C222.611496,24.8250668 222.314341,24.9209624 221.967101,24.9209624 C221.606423,24.9209624 221.200852,24.6818341 220.761992,24.2121285 L217.830455,21.0429906 L217.830455,23.6923374 C217.830455,24.031637 217.709822,24.3242104 217.471915,24.5618118 C217.233398,24.7997185 216.927692,24.9209624 216.562434,24.9209624 C216.206337,24.9209624 215.903075,24.8070481 215.661198,24.5819682 C215.418099,24.3568882 215.295023,24.0572906 215.295023,23.6923374 L215.295023,16.0735184 C215.295023,15.7256675 215.415656,15.4285131 215.653563,15.1906064 C215.881697,14.9462862 216.189845,14.8189343 216.562434,14.8189343 C216.918836,14.8189343 217.222403,14.9328486 217.46428,15.1573178 C217.707379,15.3823977 217.830455,15.6905465 217.830455,16.0735184 L217.830455,18.2155954 L220.590662,15.2764238 C220.683199,15.17045 220.799251,15.0736381 220.949508,14.9798802 C221.46991,14.694331 222.021462,14.7865619 222.42062,15.1573178 C222.681432,15.4001109 222.812754,15.6990977 222.812754,16.0469486 C222.812754,16.4048776 222.581566,16.8025087 222.085596,17.298784 L219.788376,19.559051 Z M229.013905,20.6184232 L228.154815,17.9394526 L227.276789,20.6184232 L229.013905,20.6184232 Z M232.506462,23.5349952 C232.525092,23.6428015 232.53517,23.7133489 232.53517,23.7710696 C232.53517,24.1012072 232.412399,24.3830916 232.168995,24.6081715 C231.945137,24.8158437 231.668444,24.9209013 231.346858,24.9209013 C230.733309,24.9209013 230.297197,24.6078661 230.118843,24.0395163 L229.785346,22.9956584 L226.527948,22.9956584 L226.194756,24.0285219 C226.01457,24.6029797 225.583345,24.9209013 224.980485,24.9209013 C224.658593,24.9209013 224.36602,24.8088195 224.112232,24.5886259 C223.859361,24.3690432 223.725901,24.0688348 223.725901,23.7185407 C223.725901,23.6015724 223.742698,23.4824664 223.776292,23.3654981 L223.819964,23.2201276 L226.484886,16.0160421 C226.808305,15.1682511 227.370547,14.74008 228.156952,14.74008 C228.962598,14.74008 229.541637,15.1832157 229.831156,16.0215393 L232.413926,23.1889768 C232.454544,23.2836508 232.489054,23.4116135 232.506462,23.5349952 Z M25.9012971,12.4844551 C25.9012971,10.809335 25.2489623,9.23438611 24.0646202,8.0497387 C22.8799728,6.86539669 21.305024,6.21306184 19.6299038,6.21306184 L6.21306184,6.21306184 L6.21306184,12.4844551 L6.21306184,18.7558484 L19.6299038,18.7558484 C21.305024,18.7558484 22.8799728,18.1032082 24.0646202,16.9188662 C25.2489623,15.7345241 25.9012971,14.1595753 25.9012971,12.4844551 Z M32.1146643,12.4844551 C32.1146643,19.3794756 26.5249243,24.9689103 19.6299038,24.9689103 L5.07544607,24.9689103 L2.27523155,24.9689103 L4.26325641e-14,24.9689103 L4.26325641e-14,12.4844551 L4.26325641e-14,-9.23705556e-14 L19.6299038,-9.23705556e-14 C26.5249243,-9.23705556e-14 32.1146643,5.58943462 32.1146643,12.4844551 Z M97.0396947,11.6690366 C97.753415,12.3827569 98.3141298,13.214667 98.7062636,14.1415567 C99.1130567,15.1032619 99.3192019,16.1226878 99.3192019,17.1720429 C99.3192019,18.2210926 99.1130567,19.2408239 98.7062636,20.2022238 C98.3141298,21.1294188 97.753415,21.9610236 97.0396947,22.6747439 C96.3259744,23.3884642 95.4940642,23.949179 94.5668692,24.3413128 C93.6054694,24.7481059 92.5860435,24.954251 91.5366883,24.954251 L70.3257276,24.954251 C68.6182351,24.954251 67.2335505,23.5701773 67.2335505,21.8623793 C67.2335505,20.1545814 68.6182351,18.7705076 70.3257276,18.7705076 L91.5366883,18.7705076 C92.4180733,18.7705076 93.135153,18.0531225 93.135153,17.1720429 C93.135153,16.2903525 92.4180733,15.5735782 91.5366883,15.5735782 L91.5366883,15.5836564 L75.0185073,15.5836564 C73.9688467,15.5836564 72.9491154,15.3775113 71.9871048,14.9707182 C71.0599097,14.578279 70.2276942,14.0175642 69.5136685,13.3035385 C68.7999482,12.5898182 68.238928,11.7576026 67.8467942,10.8301022 C67.4400011,9.86839694 67.2335505,8.84866565 67.2335505,7.79900513 C67.2335505,6.74965001 67.4400011,5.72961331 67.8467942,4.76790806 C68.238928,3.84071302 68.7999482,3.00849746 69.5136685,2.29447177 C70.2276942,1.58044608 71.0599097,1.0197313 71.9871048,0.627597429 C72.9491154,0.220804351 73.9688467,0.0143538098 75.0185073,0.0143538098 L94.5971038,0.0143538098 C96.3045964,0.0143538098 97.6892809,1.39873296 97.6892809,3.10622552 C97.6892809,4.81402349 96.3045964,6.19840263 94.5971038,6.19840263 L75.0185073,6.19840263 C74.1355952,6.19840263 73.4175994,6.91639853 73.4175994,7.79900513 C73.4175994,8.68161173 74.1355952,9.39960762 75.0185073,9.39960762 L91.5366883,9.39960762 L91.5366883,9.38952941 C92.5860435,9.38952941 93.6054694,9.59567456 94.5668692,10.0024676 C95.4940642,10.3946015 96.3259744,10.9553163 97.0396947,11.6690366 Z M59.4889066,-9.23705556e-14 L65.6732609,-9.23705556e-14 L65.6732609,21.8623793 C65.6732609,23.1129932 64.9198386,24.2402254 63.7645096,24.7190929 C63.3818431,24.8772902 62.9799364,24.954251 62.5816946,24.954251 C61.776965,24.9545564 60.9862839,24.6402996 60.3947237,24.0487394 L39.7716584,9.14215525 L39.7716584,24.9689103 L33.5876095,24.9689103 L33.5876095,3.10622552 C33.5876095,1.85591707 34.3410319,0.728379498 35.4963609,0.249817371 C36.6519952,-0.228744756 37.9817077,0.0357318244 38.8661468,0.920170829 L59.4889066,15.826755 L59.4889066,-9.23705556e-14 Z" fill="#FC8507"></path>
                    </g>
                </g>
            </g>
        </g>
    </g>
</svg>
