<?xml version="1.0" encoding="UTF-8"?>
<svg width="235px" height="25px" viewBox="0 0 235 25" version="1.1" xmlns="http://www.w3.org/2000/svg">
    <g stroke="none" stroke-width="1" fill="none" fill-rule="evenodd">
        <g transform="translate(-370.000000, -207.000000)">
            <g transform="translate(0.000000, 154.000000)">
                <g transform="translate(370.000000, 53.000000)">
                    <path d="M25.5454819,12.3129518 C25.5454819,10.6611446 24.9021084,9.10753012 23.7340361,7.93945783 C22.5656627,6.77138554 21.0123494,6.12801205 19.360241,6.12801205 L6.12771084,6.12801205 L6.12771084,12.3129518 L6.12771084,18.4981928 L19.360241,18.4981928 C21.0123494,18.4981928 22.5656627,17.8548193 23.7340361,16.686747 C24.9021084,15.5186747 25.5454819,13.9650602 25.5454819,12.3129518 Z M31.673494,12.3129518 C31.673494,19.113253 26.1605422,24.6262048 19.360241,24.6262048 L5.00572289,24.6262048 L2.2439759,24.6262048 L0,24.6262048 L0,12.3129518 L0,0 L19.360241,0 C26.1605422,0 31.673494,5.51295181 31.673494,12.3129518 Z M95.7066265,11.5087349 C95.0027108,10.8048193 94.1822289,10.2518072 93.2677711,9.86506024 C92.3195783,9.46415663 91.3141566,9.26054217 90.2792169,9.26054217 L90.2792169,9.27078313 L73.9879518,9.27078313 C73.1171687,9.27078313 72.4090361,8.5626506 72.4090361,7.69216867 C72.4090361,6.82168675 73.1171687,6.11355422 73.9879518,6.11355422 L93.2975904,6.11355422 C94.9816265,6.11355422 96.3472892,4.74819277 96.3472892,3.06385542 C96.3472892,1.37981928 94.9816265,0.0144578313 93.2975904,0.0144578313 L73.9879518,0.0144578313 C72.9527108,0.0144578313 71.946988,0.218072289 70.9981928,0.618975904 C70.0837349,1.0060241 69.2629518,1.55903614 68.5587349,2.26325301 C67.8548193,2.96746988 67.301506,3.78795181 66.914759,4.70240964 C66.5135542,5.65120482 66.3099398,6.65692771 66.3099398,7.69216867 C66.3099398,8.72740964 66.5135542,9.73313253 66.914759,10.6816265 C67.301506,11.5960843 67.8548193,12.4171687 68.5587349,13.1210843 C69.2629518,13.8253012 70.0837349,14.3783133 70.9981928,14.7653614 C71.946988,15.1665663 72.9527108,15.3695783 73.9879518,15.3695783 L90.2792169,15.3695783 L90.2792169,15.3596386 C91.148494,15.3596386 91.8557229,16.0668675 91.8557229,16.9364458 C91.8557229,17.8054217 91.148494,18.5126506 90.2792169,18.5126506 L69.3596386,18.5126506 C67.6756024,18.5126506 66.3099398,19.878012 66.3099398,21.5623494 C66.3099398,23.2463855 67.6756024,24.611747 69.3596386,24.611747 L90.2792169,24.611747 C91.3141566,24.611747 92.3195783,24.4084337 93.2677711,24.0072289 C94.1822289,23.6204819 95.0027108,23.0674699 95.7066265,22.3635542 C96.4105422,21.6596386 96.9635542,20.8391566 97.3503012,19.9246988 C97.751506,18.976506 97.9548193,17.9710843 97.9548193,16.9364458 C97.9548193,15.9012048 97.751506,14.8957831 97.3503012,13.9475904 C96.9635542,13.0334337 96.4105422,12.2126506 95.7066265,11.5087349 Z M58.6716867,0 L64.7710843,0 L64.7710843,21.5623494 C64.7710843,22.7957831 64.028012,23.9075301 62.8885542,24.3798193 C62.5111446,24.5358434 62.114759,24.611747 61.721988,24.611747 C60.9283133,24.611747 60.148494,24.3021084 59.5650602,23.7183735 L39.2253012,9.01686747 L39.2253012,24.6262048 L33.1262048,24.6262048 L33.1262048,3.06385542 C33.1262048,1.83042169 33.8692771,0.718674699 35.0087349,0.246385542 C36.148494,-0.225301205 37.4599398,0.0352409639 38.3322289,0.907831325 L58.6716867,15.6093373 L58.6716867,0 Z" fill="#F58A1E"></path>
                    <path d="M234.480964,21.6965964 C234.480964,23.4779217 233.023434,24.935753 231.241807,24.935753 L107.297831,24.935753 C105.516205,24.935753 104.058675,23.4779217 104.058675,21.6965964 L104.058675,3.33394578 C104.058675,1.55231928 105.516205,0.0944879518 107.297831,0.0944879518 L231.241807,0.0944879518 C233.023434,0.0944879518 234.480964,1.55231928 234.480964,3.33394578 L234.480964,21.6965964 Z" fill="#5C2D91"></path>
                    <path d="M118.518705,6.15012048 L112.187982,6.15012048 C111.764187,6.15012048 111.42503,6.29349398 111.150934,6.5886747 C110.902741,6.8573494 110.777139,7.18987952 110.777139,7.57783133 C110.777139,7.96277108 110.885873,8.27783133 111.105452,8.53716867 C111.357861,8.85283133 111.712078,9.00584337 112.187982,9.00584337 L113.822319,9.00584337 L113.822319,17.4010241 C113.822319,17.8895783 113.9675,18.2823494 114.260572,18.5751205 C114.552741,18.8462048 114.920211,18.9835542 115.353343,18.9835542 C115.786476,18.9835542 116.153946,18.8462048 116.452741,18.5687952 C116.739187,18.2823494 116.884367,17.8892771 116.884367,17.4010241 L116.884367,9.00584337 L118.518705,9.00584337 C118.99491,9.00584337 119.348825,8.85283133 119.597018,8.54198795 C119.820512,8.27813253 119.929247,7.96277108 119.929247,7.57783133 C119.929247,7.18987952 119.803645,6.85704819 119.555452,6.58837349 C119.281657,6.29349398 118.9425,6.15012048 118.518705,6.15012048" fill="#FEFEFE"></path>
                    <path d="M126.878464,16.0245783 L123.936898,16.0245783 L123.936898,13.8914458 L126.517319,13.8914458 C126.986898,13.8914458 127.354066,13.7426506 127.640512,13.4354217 C127.891717,13.1631325 128.014006,12.8450602 128.014006,12.4637349 C128.014006,12.0760843 127.888404,11.7429518 127.63991,11.4742771 C127.373645,11.1869277 126.985392,11.0357229 126.517319,11.0357229 L123.936898,11.0357229 L123.936898,9.00590361 L126.723645,9.00590361 C127.183886,9.00590361 127.551958,8.85078313 127.8125,8.55018072 C128.064006,8.27759036 128.185994,7.95981928 128.185994,7.57789157 C128.185994,7.20078313 128.068524,6.87036145 127.829367,6.58843373 C127.559187,6.29746988 127.187199,6.15018072 126.723645,6.15018072 L122.45738,6.15018072 C121.735392,6.15018072 120.874548,6.45168675 120.874548,7.88753012 L120.874548,17.3489759 C120.874548,17.8007831 121.02756,18.1727711 121.329669,18.4543976 C121.632681,18.7372289 122.006476,18.8803012 122.440211,18.8803012 L126.878464,18.8803012 C127.338705,18.8803012 127.706777,18.7251807 127.967319,18.4245783 C128.218825,18.151988 128.340813,17.8342169 128.340813,17.4522892 C128.340813,17.0751807 128.223343,16.7450602 127.983886,16.4628313 C127.714006,16.1718675 127.342319,16.0245783 126.878464,16.0245783" fill="#FEFEFE"></path>
                    <path d="M139.682319,16.5172892 L136.38262,12.0841566 L139.059428,8.44951807 C139.275994,8.17331325 139.385934,7.86849398 139.385934,7.54349398 C139.385934,7.08325301 139.230512,6.71518072 138.930512,6.45554217 C138.638946,6.18415663 138.271175,6.04680723 137.837741,6.04680723 C137.305813,6.04680723 136.850392,6.30343373 136.52238,6.78536145 L134.586235,9.53355422 L132.6525,6.7886747 C132.32238,6.30343373 131.866958,6.04680723 131.33503,6.04680723 C130.901295,6.04680723 130.533524,6.18415663 130.248283,6.44981928 C129.941958,6.71518072 129.786536,7.08325301 129.786536,7.54349398 C129.786536,7.86879518 129.896476,8.17361446 130.108825,8.44349398 L132.789849,12.0841566 L129.48744,16.5212048 C129.389247,16.6588554 129.328705,16.7940964 129.270572,16.9501205 C129.191657,17.1474096 129.15009,17.3507229 129.15009,17.5386747 C129.15009,17.9763253 129.305512,18.3323494 129.605512,18.5922892 C129.88503,18.8519277 130.252801,18.9835542 130.698584,18.9835542 C131.206114,18.9835542 131.64256,18.7531325 131.960633,18.3157831 L134.586235,14.6654819 L137.212741,18.316988 C137.530211,18.7531325 137.966355,18.9835542 138.474187,18.9835542 C138.91756,18.9835542 139.278705,18.8576506 139.584127,18.5922892 C139.87509,18.3224096 140.02238,17.9675904 140.02238,17.5386747 C140.02238,17.3721084 139.991054,17.1862651 139.921175,16.9549398 C139.864849,16.8055422 139.789849,16.6672892 139.682319,16.5172892" fill="#FEFEFE"></path>
                    <path d="M150.616747,6.04686747 C150.183313,6.04686747 149.815241,6.18421687 149.517651,6.46162651 C149.230904,6.74777108 149.085723,7.14114458 149.085723,7.6296988 L149.085723,11.0354217 L144.165843,11.0354217 L144.165843,7.6296988 C144.165843,7.14084337 144.020361,6.74746988 143.72759,6.4553012 C143.435723,6.18421687 143.067952,6.04686747 142.634819,6.04686747 C142.201084,6.04686747 141.833313,6.18421687 141.535422,6.4613253 C141.248675,6.74777108 141.103494,7.14084337 141.103494,7.6296988 L141.103494,17.4007831 C141.103494,17.8893373 141.248675,18.2824096 141.541747,18.5751807 C141.833614,18.8462651 142.201386,18.9836145 142.634819,18.9836145 C143.067651,18.9836145 143.435422,18.8462651 143.733916,18.5688554 C144.020663,18.2824096 144.165843,17.8893373 144.165843,17.4007831 L144.165843,13.8914458 L149.085723,13.8914458 L149.085723,17.4007831 C149.085723,17.8890361 149.230904,18.2821084 149.523976,18.5751807 C149.815843,18.8462651 150.183614,18.9836145 150.616747,18.9836145 C151.04988,18.9836145 151.417651,18.8462651 151.716145,18.5688554 C152.002892,18.2824096 152.147771,17.8890361 152.147771,17.4007831 L152.147771,7.6296988 C152.147771,7.14084337 152.002892,6.74777108 151.709819,6.4553012 C151.417952,6.18421687 151.050181,6.04686747 150.616747,6.04686747" fill="#FEFEFE"></path>
                    <path d="M157.421657,9.90665663 C157.976476,9.1614759 158.706596,8.79942771 159.654187,8.79942771 C160.601476,8.79942771 161.331596,9.1614759 161.885813,9.90605422 C162.391235,10.5906928 162.64756,11.4684036 162.64756,12.5150904 C162.64756,13.5891867 162.396958,14.4726205 161.902982,15.1415964 C161.361416,15.8744277 160.625873,16.2310542 159.654187,16.2310542 C158.6825,16.2310542 157.946657,15.8744277 157.40509,15.1415964 C156.911416,14.4726205 156.660813,13.5891867 156.660813,12.5150904 C156.660813,11.4684036 156.917139,10.5903916 157.421657,9.90665663 M159.654187,5.94370482 C157.860512,5.94370482 156.365331,6.58346386 155.211114,7.84400602 C154.07256,9.07171687 153.495452,10.6431024 153.495452,12.5150904 C153.495452,14.3693072 154.072259,15.9403916 155.20991,17.1849699 C156.365331,18.4470181 157.860512,19.0870783 159.654187,19.0870783 C161.459307,19.0870783 162.960211,18.4470181 164.116837,17.1834639 C165.242139,15.9331627 165.81262,14.3623795 165.81262,12.5150904 C165.81262,10.6687048 165.246355,9.15274096 164.081898,7.88075301 C162.921657,6.59551205 161.431898,5.94370482 159.654187,5.94370482" fill="#FEFEFE"></path>
                    <path d="M176.673313,6.15012048 L168.691084,6.15012048 C168.254036,6.15012048 167.87994,6.29349398 167.608855,6.56487952 C167.306747,6.86698795 167.16006,7.24891566 167.16006,7.73295181 L167.16006,17.4010241 C167.16006,17.8892771 167.305241,18.2820482 167.598313,18.5751205 C167.890181,18.8462048 168.257952,18.9835542 168.691084,18.9835542 C169.124217,18.9835542 169.491988,18.8462048 169.790482,18.5687952 C170.077229,18.2823494 170.22241,17.8892771 170.22241,17.4010241 L170.22241,8.90283133 L175.142289,8.90283133 L175.142289,17.4010241 C175.142289,17.8892771 175.287169,18.2823494 175.580542,18.5751205 C175.87241,18.8462048 176.240181,18.9835542 176.673313,18.9835542 C177.106446,18.9835542 177.474217,18.8462048 177.772711,18.5687952 C178.059157,18.2820482 178.204337,17.8892771 178.204337,17.4010241 L178.204337,7.73295181 C178.204337,7.24891566 178.057651,6.86698795 177.755542,6.56487952 C177.484458,6.29349398 177.110361,6.15012048 176.673313,6.15012048" fill="#FEFEFE"></path>
                    <path d="M183.478223,9.90665663 C184.033042,9.1614759 184.763163,8.79942771 185.710452,8.79942771 C186.658042,8.79942771 187.388163,9.1614759 187.94238,9.90605422 C188.447801,10.5903916 188.703825,11.4684036 188.703825,12.5150904 C188.703825,13.5891867 188.453524,14.4726205 187.959548,15.1415964 C187.417982,15.8744277 186.68244,16.2310542 185.710452,16.2310542 C184.739066,16.2310542 184.003223,15.8744277 183.461657,15.1415964 C182.967681,14.4726205 182.71738,13.5891867 182.71738,12.5150904 C182.71738,11.4684036 182.973404,10.5906928 183.478223,9.90665663 M185.710452,5.94370482 C183.917078,5.94370482 182.421898,6.58346386 181.267681,7.84400602 C180.129127,9.07171687 179.552018,10.6431024 179.552018,12.5150904 C179.552018,14.3693072 180.128825,15.9406928 181.266476,17.1849699 C182.421898,18.4470181 183.917078,19.0870783 185.710452,19.0870783 C187.515572,19.0870783 189.016777,18.4470181 190.173404,17.1834639 C191.298705,15.9331627 191.869187,14.3623795 191.869187,12.5150904 C191.869187,10.669006 191.302922,9.15274096 190.138464,7.88075301 C188.977922,6.59551205 187.488163,5.94370482 185.710452,5.94370482" fill="#FEFEFE"></path>
                    <path d="M202.729729,6.04686747 C202.223102,6.04686747 201.794488,6.26915663 201.454729,6.70891566 L196.278825,13.4664458 L196.278825,7.6296988 C196.278825,7.14114458 196.133645,6.74777108 195.840572,6.4553012 C195.549006,6.18421687 195.181235,6.04686747 194.747801,6.04686747 C194.314066,6.04686747 193.946295,6.18421687 193.648404,6.46162651 C193.361657,6.74777108 193.216476,7.14084337 193.216476,7.6296988 L193.216476,17.4007831 C193.216476,17.8890361 193.361657,18.2824096 193.654729,18.5751807 C193.946898,18.8462651 194.314669,18.9836145 194.747801,18.9836145 C195.254127,18.9836145 195.682741,18.7613253 196.021898,18.3227711 L201.198705,11.6438554 L201.198705,17.4007831 C201.198705,17.8893373 201.343886,18.2824096 201.636958,18.5751807 C201.929127,18.8462651 202.296898,18.9836145 202.729729,18.9836145 C203.162861,18.9836145 203.530633,18.8462651 203.829127,18.5688554 C204.115572,18.2824096 204.260753,17.8893373 204.260753,17.4007831 L204.260753,7.6296988 C204.260753,7.14084337 204.115572,6.74777108 203.822801,6.4553012 C203.531235,6.18421687 203.163163,6.04686747 202.729729,6.04686747" fill="#FEFEFE"></path>
                    <path d="M215.71009,6.04686747 C215.276355,6.04686747 214.908584,6.18421687 214.610994,6.4613253 C214.323946,6.74777108 214.178765,7.14084337 214.178765,7.6296988 L214.178765,11.0354217 L209.258886,11.0354217 L209.258886,7.6296988 C209.258886,7.14084337 209.113705,6.74746988 208.820633,6.4553012 C208.529066,6.18421687 208.161295,6.04686747 207.727861,6.04686747 C207.294428,6.04686747 206.926355,6.18421687 206.628765,6.4613253 C206.342018,6.74777108 206.196837,7.14084337 206.196837,7.6296988 L206.196837,17.4007831 C206.196837,17.8893373 206.342018,18.2824096 206.63509,18.5751807 C206.926958,18.8462651 207.294729,18.9836145 207.727861,18.9836145 C208.160994,18.9836145 208.528464,18.8462651 208.827259,18.5688554 C209.113705,18.2824096 209.258886,17.8893373 209.258886,17.4007831 L209.258886,13.8914458 L214.178765,13.8914458 L214.178765,17.4007831 C214.178765,17.8890361 214.323946,18.2824096 214.617018,18.5751807 C214.908886,18.8462651 215.276958,18.9836145 215.71009,18.9836145 C216.142922,18.9836145 216.510693,18.8462651 216.809488,18.5688554 C217.095934,18.2821084 217.241114,17.8890361 217.241114,17.4007831 L217.241114,7.6296988 C217.241114,7.14114458 217.095934,6.74807229 216.803163,6.4553012 C216.511295,6.18421687 216.143524,6.04686747 215.71009,6.04686747" fill="#FEFEFE"></path>
                    <path d="M226.982922,6.58840361 C226.709428,6.2935241 226.370271,6.1501506 225.946476,6.1501506 L219.615753,6.1501506 C219.191958,6.1501506 218.852801,6.2935241 218.578705,6.58870482 C218.330512,6.85737952 218.20491,7.18990964 218.20491,7.57786145 C218.20491,7.9625 218.313645,8.27786145 218.53262,8.5371988 C218.785331,8.85286145 219.139548,9.00587349 219.615753,9.00587349 L221.249789,9.00587349 L221.249789,17.400753 C221.249789,17.8893072 221.39497,18.2820783 221.688042,18.5754518 C221.980512,18.8462349 222.347982,18.9835843 222.781114,18.9835843 C223.213946,18.9835843 223.581717,18.8462349 223.880211,18.5688253 C224.166657,18.2823795 224.312139,17.8896084 224.312139,17.400753 L224.312139,9.00587349 L225.946476,9.00587349 C226.42238,9.00587349 226.776295,8.85286145 227.024789,8.54201807 C227.248584,8.27786145 227.357018,7.9625 227.357018,7.57786145 C227.357018,7.18990964 227.231416,6.85737952 226.982922,6.58840361" fill="#FEFEFE"></path>
                </g>
            </g>
        </g>
    </g>
</svg>
